<svg version="1.2" xmlns="http://www.w3.org/2000/svg" viewBox="0 0 39 39" width="39" height="39">
	<title>account-hover-svg</title>
	<defs>
		<clipPath clipPathUnits="userSpaceOnUse" id="cp1">
			<path d="m0 0h41v39h-41z"/>
		</clipPath>
	</defs>
	<style>
		.s0 { fill: none;stroke: #02050d;stroke-linecap: round;stroke-linejoin: round;stroke-width: 3 } 
		.s1 { fill: none;stroke: #02050d;stroke-width: 3 } 
	</style>
	<g id="Group_241">
		<g id="Clip-Path: Group_239" clip-path="url(#cp1)">
			<g id="Group_239">
				<path id="Ellipse_9" class="s0" d="m20 36c-9.4 0-17-7.6-17-17 0-9.4 7.6-17 17-17 9.4 0 17 7.6 17 17 0 9.4-7.6 17-17 17z"/>
			</g>
		</g>
	</g>
	<path id="Icon_material-account-circle" fill-rule="evenodd" class="s1" d="m17.5 6.8q-1.1 0.4-1.8 1.2-0.8 0.8-1.2 1.8-0.5 1-0.5 2.1c0 2.3 1.4 4.3 3.5 5.1 2 0.9 4.4 0.4 6-1.2 1.6-1.5 2.1-3.9 1.2-6-0.8-2.1-2.9-3.4-5.1-3.4q-1.1 0-2.1 0.4zm5.3 25.4q1.6-0.4 3.1-1.2 1.4-0.7 2.7-1.8 1.2-1.2 2.1-2.5c-0.1-3.7-7.4-5.7-11.1-5.7-3.7 0-11 2-11.1 5.7q0.9 1.3 2.1 2.5 1.2 1.1 2.7 1.8 1.4 0.8 3 1.2 1.6 0.4 3.3 0.4 1.6 0 3.2-0.4z"/>
</svg>
