<svg version="1.2" xmlns="http://www.w3.org/2000/svg" viewBox="0 0 51 46" width="51" height="46">
	<title>cart-hover-svg</title>
	<defs>
		<clipPath clipPathUnits="userSpaceOnUse" id="cp1">
			<path d="m-0.42 0h49.93v46.83h-49.94z"/>
		</clipPath>
	</defs>
	<style>
		.s0 { fill: none;stroke: #02050d;stroke-linecap: round;stroke-linejoin: round;stroke-width: 3 } 
	</style>
	<g id="Clip-Path: Group_235" clip-path="url(#cp1)">
		<g id="Group_235">
			<path id="Path_259" fill-rule="evenodd" class="s0" d="m10.3 9.2h34q0.4 0 0.8 0.2 0.3 0.2 0.5 0.5 0.3 0.2 0.4 0.6 0.1 0.4 0 0.8l-2.4 12.9q-0.1 0.5-0.3 1-0.3 0.5-0.7 0.9-0.5 0.4-1 0.6-0.5 0.2-1.1 0.3l-25.3 1.8"/>
			<path id="Path_260" fill-rule="evenodd" class="s0" d="m42.3 32.6h-22.9q-0.6 0-1.3-0.2-0.6-0.2-1.1-0.6-0.5-0.4-0.9-0.9-0.4-0.6-0.6-1.2l-5.7-22.4q-0.2-0.6-0.5-1.1-0.4-0.6-0.9-0.9-0.4-0.4-1-0.6-0.6-0.2-1.2-0.2h-3.1"/>
			<path id="Ellipse_8" class="s0" d="m22.8 41.4c-1.5 0-2.8-1.3-2.8-2.8 0-1.5 1.3-2.7 2.8-2.7 1.5 0 2.7 1.2 2.7 2.7 0 1.5-1.2 2.8-2.7 2.8z"/>
			<path id="Path_261" fill-rule="evenodd" class="s0" d="m38.5 38.6c0 1.1-0.7 2.1-1.7 2.5-1.1 0.5-2.2 0.2-3-0.6-0.8-0.7-1-1.9-0.6-2.9 0.4-1.1 1.4-1.7 2.5-1.7q0.6 0 1.1 0.2 0.5 0.2 0.9 0.6 0.3 0.4 0.5 0.9 0.3 0.5 0.3 1z"/>
		</g>
	</g>
</svg>
