<svg version="1.2" xmlns="http://www.w3.org/2000/svg" viewBox="0 0 49 44" width="49" height="44">
	<title>clock-hover-svg</title>
	<defs>
		<clipPath clipPathUnits="userSpaceOnUse" id="cp1">
			<path d="m-0.55 0h49.64v45.7h-49.64z"/>
		</clipPath>
	</defs>
	<style>
		.s0 { fill: none;stroke: #02050d;stroke-linecap: round;stroke-linejoin: round;stroke-width: 3 } 
	</style>
	<path id="Path_249" fill-rule="evenodd" class="s0" d="m21.8 12v10.4h-8.8"/>
	<g id="Group_231">
		<g id="Clip-Path: Group_230" clip-path="url(#cp1)">
			<g id="Group_230">
				<path id="Path_250" fill-rule="evenodd" class="s0" d="m21.8 40.3c-7.2 0-13.8-4.4-16.5-11.1-2.8-6.7-1.3-14.4 3.8-19.5 5.2-5.1 12.9-6.7 19.6-3.9 6.6 2.8 11 9.3 11 16.6v1.2"/>
				<path id="Path_251" fill-rule="evenodd" class="s0" d="m44.6 36.4h-9.1l6-8.8h0.9v12.5"/>
				<path id="Path_252" fill-rule="evenodd" class="s0" d="m26.2 29.3q0.2-0.2 0.5-0.4 0.2-0.2 0.5-0.4 0.2-0.2 0.5-0.3 0.2-0.2 0.5-0.4 0 0 0.1 0 0.1-0.1 0.1-0.1 0.1 0 0.1 0 0.1-0.1 0.1-0.1c0.8-0.3 1.6-0.3 2.3-0.1 0.8 0.2 1.4 0.7 1.9 1.3 0.4 0.6 0.7 1.4 0.6 2.2 0 0.8-0.2 1.5-0.7 2.1q-0.4 0.5-0.8 1-0.4 0.4-0.8 0.9-0.4 0.4-0.9 0.8-0.4 0.5-0.8 0.9l-3.7 3.4h8"/>
				<path id="Path_253" fill-rule="evenodd" class="s0" d="m35.4 19.8l4.3 3.8 3.9-4.3"/>
			</g>
		</g>
	</g>
</svg>
