<svg version="1.2" xmlns="http://www.w3.org/2000/svg" viewBox="0 0 42 39" width="42" height="39">
	<title>faq-hover-svg</title>
	<defs>
		<clipPath clipPathUnits="userSpaceOnUse" id="cp1">
			<path d="m1 0h41v40h-41z"/>
		</clipPath>
	</defs>
	<style>
		.s0 { fill: none;stroke: #02050d;stroke-linecap: round;stroke-linejoin: round;stroke-width: 3 } 
	</style>
	<g id="Clip-Path: Group_239" clip-path="url(#cp1)">
		<g id="Group_239">
			<path id="Path_267" fill-rule="evenodd" class="s0" d="m22.7 24.5h-3.9v-0.3q0-0.8 0.1-1.5 0.2-0.8 0.5-1.5 0.4-0.7 0.9-1.3 0.4-0.5 1-1l2.9-2.2q0.2-0.2 0.4-0.4 0.2-0.3 0.3-0.5 0.2-0.3 0.2-0.6 0.1-0.3 0.1-0.6 0-0.7-0.3-1.3-0.2-0.7-0.7-1.2-0.5-0.5-1.1-0.7-0.7-0.3-1.4-0.3-0.7 0-1.3 0.3-0.7 0.2-1.1 0.7-0.5 0.5-0.8 1.2-0.3 0.6-0.3 1.3v2h-3.9v-2q0-1.5 0.6-2.8 0.6-1.4 1.6-2.4 1-1.1 2.4-1.7 1.4-0.5 2.8-0.5 1.5 0 2.9 0.6 1.3 0.5 2.4 1.6 1 1 1.6 2.4 0.5 1.3 0.5 2.8 0 0.7-0.2 1.5-0.1 0.7-0.5 1.4-0.3 0.7-0.8 1.3-0.5 0.6-1 1l-2.9 2.2q-0.2 0.2-0.4 0.4-0.2 0.3-0.3 0.6-0.2 0.2-0.3 0.5 0 0.3 0 0.7z"/>
			<path id="Path_268" fill-rule="evenodd" class="s0" d="m23.1 29.1c0-0.9-0.6-1.8-1.5-2.2-0.9-0.3-1.9-0.1-2.5 0.5-0.7 0.7-0.9 1.7-0.6 2.6 0.4 0.9 1.3 1.5 2.2 1.5q0.5 0 0.9-0.2 0.4-0.2 0.8-0.5 0.3-0.4 0.5-0.8 0.2-0.4 0.2-0.9z"/>
			<path id="Ellipse_9" class="s0" d="m21 36c-9.4 0-17-7.6-17-17 0-9.4 7.6-17 17-17 9.4 0 17 7.6 17 17 0 9.4-7.6 17-17 17z"/>
		</g>
	</g>
</svg>
