<svg xmlns="http://www.w3.org/2000/svg" xmlns:xlink="http://www.w3.org/1999/xlink" width="439.692" height="51.884" viewBox="0 0 439.692 51.884">
  <defs>
    <clipPath id="clip-path">
      <rect id="Rectangle_216" data-name="Rectangle 216" width="439.692" height="51.884" fill="#fff"/>
    </clipPath>
  </defs>
  <g id="Group_304" data-name="Group 304" transform="translate(0 0)">
    <g id="Group_243" data-name="Group 243" transform="translate(0 0)" clip-path="url(#clip-path)">
      <path id="Path_269" data-name="Path 269" d="M281.757,1.215A23.643,23.643,0,0,0,263.78,8.781a24.807,24.807,0,0,0-6.872,17.63,24.763,24.763,0,0,0,6.8,17.561A25.14,25.14,0,0,0,299.6,43.9a24.812,24.812,0,0,0,6.872-17.631,24.765,24.765,0,0,0-6.8-17.561,23.578,23.578,0,0,0-17.908-7.5m13.674,39.357a18.954,18.954,0,0,1-27.418-.069,20.1,20.1,0,0,1-5.415-14.23,20.065,20.065,0,0,1,5.345-14.16,18.953,18.953,0,0,1,27.418.069,20.109,20.109,0,0,1,5.414,14.23,20.071,20.071,0,0,1-5.345,14.16" transform="translate(-110.62 -0.523)" fill="#fff"/>
      <path id="Path_270" data-name="Path 270" d="M396.269,41.617l-30.61-38.94h-5.137V51.265h5.344V11.424L397.24,51.265h4.373V2.677h-5.345Z" transform="translate(-155.234 -1.153)" fill="#fff"/>
      <path id="Path_271" data-name="Path 271" d="M487.451,41.617l-30.61-38.94H451.7V51.265h5.344V11.424l31.374,39.842H492.8V2.677h-5.344Z" transform="translate(-194.495 -1.153)" fill="#fff"/>
      <path id="Path_272" data-name="Path 272" d="M548.368,29.262h27.21v-5h-27.21V7.676h29.639v-5H542.885V51.266h35.469v-5H548.368Z" transform="translate(-233.756 -1.153)" fill="#fff"/>
      <path id="Path_273" data-name="Path 273" d="M642.6,46.4a17.513,17.513,0,0,1-13.4-5.83,20.039,20.039,0,0,1-5.415-14.3,20.237,20.237,0,0,1,5.345-14.23A17.841,17.841,0,0,1,642.6,6.281c5.552,0,10.62,2.221,15.271,6.664l3.748-4.026A26.9,26.9,0,0,0,642.67,1.214a23.1,23.1,0,0,0-17.63,7.358A24.607,24.607,0,0,0,618.1,26.411a24.445,24.445,0,0,0,6.941,17.769,23.157,23.157,0,0,0,17.422,7.289c7.358,0,13.813-2.846,19.435-8.538l-3.61-3.54c-4.928,4.65-10.2,7.011-15.687,7.011" transform="translate(-266.141 -0.523)" fill="#fff"/>
      <path id="Path_274" data-name="Path 274" d="M705.133,2.678V7.745h16.312V51.266H727V7.745H743.31V2.678Z" transform="translate(-303.617 -1.153)" fill="#fff"/>
      <path id="Path_275" data-name="Path 275" d="M55.641,13.493v44.2H60.4V24.862l18,17.725,19-17.9v33h4.762V13.665L78.479,35.978Z" transform="translate(-23.958 -5.81)" fill="#fff"/>
      <path id="Path_276" data-name="Path 276" d="M167.016,74.473a20.947,20.947,0,0,1-12.948,4.469h-9.135V83.7h9.135a25.684,25.684,0,0,0,15.97-5.555,25.7,25.7,0,0,1-3.022-3.677" transform="translate(-62.405 -32.067)" fill="#fff"/>
      <path id="Path_277" data-name="Path 277" d="M144.157,40.708a20.962,20.962,0,0,1-5.364,3.886c-.214.108-.427.218-.643.318a21.094,21.094,0,0,1-23.772-4.2c-.333-.333-.646-.676-.952-1.025a25.749,25.749,0,0,0,1.549-24.954,20.907,20.907,0,0,0-3.127,5.1,20.982,20.982,0,0,1-1.384,15.456,21.054,21.054,0,0,1,33.694-24.356L147.1,7.982l.42-.42a25.849,25.849,0,0,0-36.513,0c-.19.19-.37.387-.553.582A25.744,25.744,0,0,0,91.663,0H0V4.761H15.4V51.884h4.762V4.761H91.663a21.009,21.009,0,0,1,15.828,7.193,25.818,25.818,0,0,0,40.032,32.121Z" transform="translate(0 0)" fill="#fff"/>
    </g>
  </g>
</svg>
