<svg id="Component_45_1" data-name="Component 45 – 1" xmlns="http://www.w3.org/2000/svg" xmlns:xlink="http://www.w3.org/1999/xlink" width="49.491" height="42.115" viewBox="0 0 49.491 42.115">
  <defs>
    <clipPath id="clip-path">
      <rect id="Rectangle_210" data-name="Rectangle 210" width="49.491" height="42.115" transform="translate(-6 -3)" fill="none" stroke="#b2b3b4" stroke-width="3"/>
    </clipPath>
  </defs>
  <g id="Group_228" data-name="Group 228" transform="translate(6 3)" clip-path="url(#clip-path)">
    <path id="Path_245" data-name="Path 245" d="M17.649,23.185c-1.674,1.339-2.865,2.114-2.865,2.114s-8.5-5.532-12-12.566A7.71,7.71,0,0,1,4.009,4.146a6.522,6.522,0,0,1,10.006.4l.769.959.771-.959a6.522,6.522,0,0,1,10.006-.4,7.7,7.7,0,0,1,1.221,8.587,25.194,25.194,0,0,1-3.7,5.328" transform="translate(-1.604 -1.604)" fill="none" stroke="#b2b3b4" stroke-linecap="round" stroke-linejoin="round" stroke-width="3"/>
    <path id="Path_246" data-name="Path 246" d="M110.981,99.766l-1.718-2.976a1.742,1.742,0,1,1,3.018-1.742l.475.823" transform="translate(-87.426 -75.516)" fill="none" stroke="#b2b3b4" stroke-linecap="round" stroke-linejoin="round" stroke-width="3"/>
    <path id="Path_247" data-name="Path 247" d="M128.449,94.847l-1.166-2.019a1.742,1.742,0,1,1,3.017-1.742l1.166,2.019" transform="translate(-101.876 -72.339)" fill="none" stroke="#b2b3b4" stroke-linecap="round" stroke-linejoin="round" stroke-width="3"/>
    <path id="Path_248" data-name="Path 248" d="M89.673,85.612a1.388,1.388,0,0,1,.508-1.9l.013-.007a2.106,2.106,0,0,1,2.858.778l3.692,6.448a7.677,7.677,0,0,1,1.021,3.753c0,.012,0,.024,0,.036a4.032,4.032,0,0,1-2.016,3.515L91.2,100.862a5.4,5.4,0,0,1-5.029.189c-1.168-.559-2.2-1.216-3.085-1.71a14.956,14.956,0,0,0-5.8-2.285,1.77,1.77,0,0,1-.336-3.468c2.354-.906,5.489.719,5.489.719l-5.454-9.446a1.821,1.821,0,0,1,.692-2.5,1.865,1.865,0,0,1,2.5.737l2.332,4.039" transform="translate(-60.67 -65.864)" fill="none" stroke="#b2b3b4" stroke-linecap="round" stroke-linejoin="round" stroke-width="3"/>
  </g>
</svg>
