<svg version="1.2" xmlns="http://www.w3.org/2000/svg" viewBox="0 0 75 79" width="75" height="79">
	<title>invoices-svg</title>
	<style>
		.s0 { fill: none;stroke: #b2b3b4;stroke-linecap: round;stroke-linejoin: round;stroke-width: 3 } 
	</style>
	<path id="Layer" class="s0" d="m15.6 48.9h25.6"/>
	<path id="Layer" class="s0" d="m15.6 60.2h25.6"/>
	<path id="Layer" fill-rule="evenodd" class="s0" d="m54.4 31.6c2.9 0 2.9 3.2 5.9 3.2 2.9 0 2.9-3.2 5.8-3.2 3 0 3 3.2 5.9 3.2v-20.4c0-5.2-4.2-9.4-9.5-9.4 0 0 0 0-0.1 0"/>
	<path id="Layer" fill-rule="evenodd" class="s0" d="m26.9 19.9c-0.9-0.7-3.3-1.5-5.4-1.2-2.6 0.3-3.9 2.3-3.9 3.9 0 1.9 1.3 3.3 4.5 4.6 3.9 1.7 5.6 3.4 5.1 6.1-0.3 1.6-1.7 3.2-4.8 3.4-2.3 0.1-4.7-1-6-2.1"/>
	<path id="Layer" class="s0" d="m22 36.9v4"/>
	<path id="Layer" class="s0" d="m22 18.4v-3.9"/>
	<path id="Layer" fill-rule="evenodd" class="s0" d="m53.5 73.5v-58.2c0-6.2 4-10.3 8.9-10.3h-49.3c-5 0-9.1 4-9.1 9v59.5h49.5z"/>
</svg>