<svg version="1.2" xmlns="http://www.w3.org/2000/svg" viewBox="0 0 50 46" width="50" height="46">
	<title>Component 42 – 3-svg</title>
	<defs>
		<clipPath clipPathUnits="userSpaceOnUse" id="cp1">
			<path d="m1.87 1h49.5v44.07h-49.5z"/>
		</clipPath>
		<clipPath clipPathUnits="userSpaceOnUse" id="cp2">
			<path d="m1.87 0h49.5v46.07h-49.5z"/>
		</clipPath>
	</defs>
	<style>
		.s0 { fill: none;stroke: #02050d;stroke-linecap: round;stroke-linejoin: round;stroke-width: 3 } 
	</style>
	<path id="Line_1" class="s0" d="m41.1 22.6v-9.5"/>
	<g id="Group_224">
		<g id="Clip-Path: Group_223" clip-path="url(#cp1)">
			<g id="Group_223">
				<path id="Path_241" fill-rule="evenodd" class="s0" d="m7.3 13.1v19.2l16.9 7.7 4.8-2.2"/>
				<path id="Path_242" fill-rule="evenodd" class="s0" d="m24.2 5.4l-16.9 7.7 16.9 7.7 16.9-7.7z"/>
			</g>
		</g>
	</g>
	<path id="Line_2" class="s0" d="m15.7 9.3l16.9 7.7"/>
	<g id="Group_226">
		<g id="Clip-Path: Group_225" clip-path="url(#cp2)">
			<g id="Group_225">
				<path id="Line_3" class="s0" d="m24.2 20.8v19.2"/>
				<path id="Path_243" fill-rule="evenodd" class="s0" d="m32.2 34h7.5q0.6 0 1.2-0.2 0.6-0.3 1.1-0.8 0.4-0.4 0.7-1 0.2-0.6 0.2-1.3c0-1.8-1.9-3.2-3.7-3.2h-2.6"/>
				<path id="Path_244" fill-rule="evenodd" class="s0" d="m35.1 37l-3-3 3-3"/>
				<path id="Ellipse_7" class="s0" d="m37.5 40.7c-4.6 0-8.4-3.8-8.4-8.5 0-4.6 3.8-8.4 8.4-8.4 4.7 0 8.5 3.8 8.5 8.4 0 4.7-3.8 8.5-8.5 8.5z"/>
			</g>
		</g>
	</g>
</svg>
