<svg id="Component_48_3" data-name="Component 48 – 3" xmlns="http://www.w3.org/2000/svg" xmlns:xlink="http://www.w3.org/1999/xlink" width="41" height="40" viewBox="0 0 41 40">
  <defs>
    <clipPath id="clip-path">
      <rect id="Rectangle_215" data-name="Rectangle 215" width="41" height="40" transform="translate(-3 -2)" fill="none" stroke="#b2b3b4" stroke-width="3"/>
    </clipPath>
  </defs>
  <g id="Group_239" data-name="Group 239" transform="translate(3 2)" clip-path="url(#clip-path)">
    <path id="Path_267" data-name="Path 267" d="M60.2,43.315H56.277v-.3a6.7,6.7,0,0,1,2.587-5.269l2.811-2.172a2.715,2.715,0,0,0,1.048-2.135,3.484,3.484,0,0,0-3.479-3.481h0a3.48,3.48,0,0,0-3.479,3.481v1.982H51.847V33.442a7.4,7.4,0,0,1,7.4-7.4h0a7.408,7.408,0,0,1,7.4,7.4,6.661,6.661,0,0,1-2.572,5.238l-2.811,2.172A2.755,2.755,0,0,0,60.2,43.018Z" transform="translate(-41.524 -20.856)" fill="none" stroke="#b2b3b4" stroke-linecap="round" stroke-linejoin="round" stroke-width="3"/>
    <path id="Path_268" data-name="Path 268" d="M76.834,126.685a2.351,2.351,0,1,0-2.351,2.352A2.352,2.352,0,0,0,76.834,126.685Z" transform="translate(-57.77 -99.577)" fill="none" stroke="#b2b3b4" stroke-linecap="round" stroke-linejoin="round" stroke-width="3"/>
    <circle id="Ellipse_9" data-name="Ellipse 9" cx="17" cy="17" r="17" fill="none" stroke="#b2b3b4" stroke-linecap="round" stroke-linejoin="round" stroke-width="3"/>
  </g>
</svg>
