<svg version="1.2" xmlns="http://www.w3.org/2000/svg" viewBox="0 0 38 43" width="38" height="43">
	<title>shopping-list-hover-svg</title>
	<defs>
		<clipPath clipPathUnits="userSpaceOnUse" id="cp1">
			<path d="m-1.3 0h40.36v43.43h-40.36z"/>
		</clipPath>
	</defs>
	<style>
		.s0 { fill: none;stroke: #02050d;stroke-linecap: round;stroke-linejoin: round;stroke-width: 3 } 
	</style>
	<g id="Clip-Path: Group_233" clip-path="url(#cp1)">
		<g id="Group_233">
			<path id="Path_254" fill-rule="evenodd" class="s0" d="m12.7 6.7h-7.6v31.3h27.6v-31.3h-7.6"/>
			<path id="Path_255" fill-rule="evenodd" class="s0" d="m22.8 5.5h-1.2c-0.1-0.6-0.5-1.1-1-1.5-0.5-0.4-1.1-0.6-1.7-0.6-0.7 0-1.3 0.2-1.8 0.6-0.5 0.4-0.8 0.9-1 1.5h-1.1q-0.5 0-1 0.2-0.5 0.2-0.9 0.6-0.4 0.4-0.6 0.8-0.2 0.5-0.2 1.1v1.9h13.2v-1.9q0-0.6-0.3-1.1-0.2-0.4-0.5-0.8-0.4-0.4-0.9-0.6-0.5-0.2-1-0.2z"/>
			<path id="Line_4" class="s0" d="m17.5 16.9h8.8"/>
			<path id="Path_256" fill-rule="evenodd" class="s0" d="m11.5 16.9l1 1.4 2.7-2.9"/>
			<path id="Line_5" class="s0" d="m17.5 22.6h8.8"/>
			<path id="Path_257" fill-rule="evenodd" class="s0" d="m11.5 22.6l1 1.4 2.7-2.9"/>
			<path id="Line_6" class="s0" d="m26.3 28.3h-8.8"/>
			<path id="Path_258" fill-rule="evenodd" class="s0" d="m11.5 28.3l1 1.4 2.7-2.9"/>
		</g>
	</g>
</svg>
