<svg id="Component_43_1" data-name="Component 43 – 1" xmlns="http://www.w3.org/2000/svg" xmlns:xlink="http://www.w3.org/1999/xlink" width="40.358" height="43.433" viewBox="0 0 40.358 43.433">
  <defs>
    <clipPath id="clip-path">
      <rect id="Rectangle_212" data-name="Rectangle 212" width="40.358" height="43.433" transform="translate(-6 -3)" fill="none" stroke="#02050d" stroke-width="3"/>
    </clipPath>
  </defs>
  <g id="Group_233" data-name="Group 233" transform="translate(6 3)" clip-path="url(#clip-path)">
    <path id="Path_254" data-name="Path 254" d="M9.58,18.926H2V50.238H29.57l-.01-31.312H21.982" transform="translate(-1.606 -15.199)" fill="none" stroke="#02050d" stroke-linecap="round" stroke-linejoin="round" stroke-width="3"/>
    <path id="Path_255" data-name="Path 255" d="M49.012,4.089H47.9a2.879,2.879,0,0,0-5.537,0H41.252a2.7,2.7,0,0,0-2.7,2.7V8.725H51.715V6.79A2.7,2.7,0,0,0,49.012,4.089Z" transform="translate(-30.958 -1.606)" fill="none" stroke="#02050d" stroke-linecap="round" stroke-linejoin="round" stroke-width="3"/>
    <line id="Line_4" data-name="Line 4" x2="8.776" transform="translate(12.795 13.897)" fill="none" stroke="#02050d" stroke-linecap="round" stroke-linejoin="round" stroke-width="3"/>
    <path id="Path_256" data-name="Path 256" d="M34.508,64.679l1.027,1.433,2.662-2.9" transform="translate(-27.712 -50.767)" fill="none" stroke="#02050d" stroke-linecap="round" stroke-linejoin="round" stroke-width="3"/>
    <line id="Line_5" data-name="Line 5" x2="8.776" transform="translate(12.795 19.585)" fill="none" stroke="#02050d" stroke-linecap="round" stroke-linejoin="round" stroke-width="3"/>
    <path id="Path_257" data-name="Path 257" d="M34.508,93.564,35.535,95,38.2,92.1" transform="translate(-27.712 -73.964)" fill="none" stroke="#02050d" stroke-linecap="round" stroke-linejoin="round" stroke-width="3"/>
    <line id="Line_6" data-name="Line 6" x1="8.776" transform="translate(12.795 25.274)" fill="none" stroke="#02050d" stroke-linecap="round" stroke-linejoin="round" stroke-width="3"/>
    <path id="Path_258" data-name="Path 258" d="M34.508,122.449l1.027,1.433,2.662-2.9" transform="translate(-27.712 -97.161)" fill="none" stroke="#02050d" stroke-linecap="round" stroke-linejoin="round" stroke-width="3"/>
  </g>
</svg>
